<svg xmlns="http://www.w3.org/2000/svg" width="256" height="256"><path fill-opacity=".016" d="M0 128.004v128.004l128.25-.254 128.25-.254.254-127.75L257.008 0H0v128.004m.485.496c0 70.4.119 99.053.265 63.672.146-35.38.146-92.98 0-128C.604 29.153.485 58.1.485 128.5" fill="#1976D2" fill-rule="evenodd"/><path fill-opacity=".171" d="M130 2c-1.1 1.1-2 2.671-2 3.491 0 .82-1.553 2.507-3.452 3.75-6.181 4.046-7.46 11.663-3.048 18.164 2.973 4.381 3.008 4.595.753 4.595-.96 0-5.123 1.067-9.25 2.372-4.126 1.304-10.878 2.893-15.003 3.531-12.384 1.916-24.813 8.967-28.551 16.196C67.856 57.18 67.52 61 68.842 61c.463 0 5.076-1.767 10.25-3.926 15.12-6.309 23.43-8.111 40.408-8.762 12.116-.465 16.236-.258 21.427 1.081 7.097 1.829 9.208 3.093 8.453 5.06-.371.965-4.475 1.436-15.691 1.802-25.293.823-52.362 6.571-68.189 14.479-18.405 9.196-27.963 18.111-34.988 32.636-8.273 17.107-9.808 23.195-9.917 39.335-.094 14.029-.122 14.199-2.252 13.665-1.186-.297-3.099-.036-4.25.58-2.031 1.087-2.093 1.804-2.093 24.038 0 22.204.678 28.012 3.272 28.012.538 0 .676 1.465.317 3.377-.763 4.066.745 8.531 3.633 10.756 1.166.898 2.279 2.682 2.475 3.964.421 2.761 3.722 6.518 6.325 7.198 1.017.267 3.005-.115 4.418-.848 2.384-1.237 2.669-1.14 3.985 1.36 1.846 3.506 9.994 11.301 15.075 14.423 2.2 1.351 6.604 3.428 9.788 4.614 5.512 2.054 7.413 2.156 40 2.153 33.409-.002 34.435-.061 43.712-2.528 18.174-4.832 29.295-9.783 59.284-26.39 21.704-12.019 26.716-16.272 34.505-29.28l5.211-8.702V80.272l-4.104-2.844c-2.257-1.564-5.821-5.372-7.919-8.462-2.114-3.113-8.419-9.541-14.146-14.422C204.105 42.847 203 41.575 203 37.476c0-2.526.366-3.273 1.41-2.872 1.996.766 6.991-2.041 8.948-5.028 2.031-3.1 4.018-16.563 3.085-20.899-.376-1.747-1.316-4.415-2.089-5.927L212.949 0h-40.475C133.333 0 131.934.066 130 2m17 1.689c-2.324 1.013-5.086 1.339-8.222.969-5.068-.598-5.564-.27-7.278 4.801-.644 1.907-1.889 3.167-3.5 3.543-3.516.82-5.193 4.716-3.956 9.194 1.071 3.88 10.173 13.22 12.24 12.56.669-.214 2.309-2.054 3.644-4.089l2.428-3.7 2.627 2.517c1.444 1.384 3.614 2.516 4.822 2.516 3.244 0 6.491-3.674 5.914-6.692-.393-2.055.041-2.677 2.456-3.519 2.189-.763 2.856-1.564 2.629-3.156-.247-1.731-.935-2.103-3.653-1.975-3.136.148-3.311-.011-2.743-2.5 1.683-7.386 1.786-9.219.599-10.65-1.534-1.848-3.453-1.804-8.007.181M113.441 121.5c-2.291 7.304.24 32.581 3.6 35.941.527.527.959 1.769.959 2.759 0 1.419-.808 1.8-3.822 1.8-6.752 0-12.609-2.818-21.822-10.5-4.871-4.061-10.51-8.32-12.531-9.464l-3.676-2.08-.695 5.566c-.657 5.258-.293 9.914 1.202 15.381.652 2.384.61 2.399-5.249 1.821-13.963-1.377-21.816-6.321-31.138-19.606-2.554-3.64-4.792-6.813-4.973-7.051-.181-.239-.884.12-1.563.797-.758.758-1.448 5.639-1.792 12.68-.449 9.208-.946 11.987-2.536 14.202-1.887 2.629-1.923 3.367-.781 16.254.658 7.425 1.253 16.65 1.321 20.5.072 4.01.736 8.068 1.555 9.5.786 1.375 1.445 3.936 1.465 5.691.019 1.755.372 3.4.785 3.655.413.254.594-1.496.403-3.89-.286-3.6.095-4.795 2.205-6.905 4.638-4.638 11.127-2.666 13.727 4.173 1.348 3.546-.516 7.93-4.176 9.823-3.575 1.849-5.915 1.838-8.598-.041-2.097-1.469-2.114-1.439-.99 1.75 1.764 5.006 8.729 13.818 14.221 17.991 15.912 12.091 50.914 15.166 86.366 7.587 17.91-3.829 33.564-10.034 55.125-21.852l13.032-7.143-2.495-1.963c-3.21-2.525-4.234-7.731-2.261-11.497 1.417-2.704 1.348-3.006-1.409-6.146-4.349-4.952-4.01-9.358 1.111-14.479 3.795-3.795 4.265-3.983 8.716-3.481 3.762.424 5.362 1.248 7.989 4.114 1.806 1.971 3.334 4.603 3.395 5.848.219 4.488-.3 7.306-1.767 9.594-1.023 1.595-1.291 3.528-.85 6.135l.643 3.807 3.517-1.08c5.285-1.622 10.812-10.385 16.26-25.78l2.838-8.022-.827-19.4c-.912-21.384-1.57-23.895-7.151-27.285-5.015-3.045-9.1-3.542-15.012-1.823-8.83 2.567-15.762 11.812-15.762 21.022 0 7.848-6.559 10.189-26.158 9.338-14.268-.62-23.205-3.066-35.568-9.734-8.878-4.79-19.27-12.79-22.508-17.331-1.396-1.956-2.481-5.289-2.825-8.676-.527-5.193-.611-5.333-1.5-2.5m111.866 27.967c-1.911.831-3.993 2.922-5.186 5.211-1.097 2.102-4.047 6.294-6.557 9.315-4.764 5.734-5.625 8.881-3.022 11.042 1.931 1.602 3.485.269 5.047-4.329 1.508-4.437 3.564-4.007 5.379 1.125 1.751 4.951 4.354 6.977 6.584 5.126 1.983-1.646 1.816-3.674-.552-6.684-1.322-1.68-2-4.057-2-7.007 0-3.687.531-4.96 3.051-7.314 1.678-1.567 3.928-3.128 5-3.468 2.642-.839 2.465-3.113-.301-3.854-3.097-.83-3.789-.752-7.443.837m-209.75 13.756c-3.364 4.802-1.206 35.772 2.882 41.363.922 1.26 1.983 1.525 4.045 1.007l2.795-.701-.667-8.696c-2.074-27.056-2.479-30.344-4.035-32.718-2.002-3.056-3.022-3.108-5.02-.255m108.943 9.136c-4.797 1.445-5.377 4.01-1 4.426 1.65.157 3.939.756 5.087 1.332 2.507 1.257 9.413-1.212 9.413-3.366 0-3.738-5.687-4.746-13.5-2.392m-66.066 14.714c-1.972 2.179-3.258 13.509-2.07 18.241.735 2.929 4.374 4.697 7.38 3.585 4.444-1.644 8.515-12.357 6.777-17.834-1.788-5.634-8.574-7.874-12.087-3.992m39.025.35c-.873 1.332-1.845 4.917-2.16 7.967-.878 8.506 2.739 12.451 9.156 9.989 4.103-1.575 5.869-10.918 3.082-16.307-2.439-4.716-7.524-5.548-10.078-1.649m106.091 2.936c-3.086 3.086-3.209 4.982-.497 7.694 1.603 1.603 3.08 1.986 6.75 1.75 4.436-.286 4.714-.474 4.997-3.38.361-3.696-2.179-7.073-6-7.976-2.085-.493-3.28-.058-5.25 1.912m-55.162 2.621c-6.509 2.63-8.355 11.207-3.465 16.097 3.333 3.332 7.454 3.814 12.097 1.413 3.633-1.879 4.98-4.314 4.98-9.001 0-6.869-6.938-11.205-13.612-8.509m1.538 6.879c-3.247 2.629-1.966 5.368 2.317 4.955 2.464-.238 3.333-.845 3.568-2.496.474-3.332-3.009-4.788-5.885-2.459m-76.152 7.891c-2.905 3.072-3.522 5.448-2.462 9.482.775 2.953 5.119 5.77 8.888 5.764 3.062-.005 8.8-3.579 8.8-5.481 0-1.787-.414-1.83-4.984-.52-1.908.548-4.319.726-5.357.397-1.935-.615-1.939-1.305-.049-9.642.455-2.008.238-2.75-.806-2.75-.787 0-2.6 1.238-4.03 2.75m131.722 1.254c-3.682 4.069 2.42 9.68 6.304 5.796 1.661-1.661 1.5-4.357-.371-6.229-2.101-2.1-3.749-1.979-5.933.433m-70.061 2.102c-.415.67-1.038 2.609-1.384 4.307-.557 2.73-1.548 3.481-8.577 6.498-4.371 1.875-11.103 4.249-14.96 5.275-14.102 3.75-37.389 3.34-46.139-.812-3.701-1.757-5.375-1.201-5.375 1.784 0 5.654 12.387 10.87 25.697 10.82 12.239-.045 31.659-6.191 45.365-14.355 5.29-3.152 6.14-3.365 9.972-2.504 2.95.663 4.599.6 5.577-.211 1.912-1.587 1.741-3.657-.361-4.354-.963-.32-2.425-2.037-3.25-3.817-1.565-3.377-5.203-4.835-6.565-2.631m-112.685.573c-2.314.618-2.404 6.133-.114 7.012 2.521.967 4.864-1.098 4.864-4.286 0-2.932-1.265-3.658-4.75-2.726m17.45.521c-1.732 1.732-1.475 5.481.427 6.21 1.988.763 4.373-1.054 4.373-3.332 0-1.635-1.797-4.078-3-4.078-.33 0-1.14.54-1.8 1.2m12.51 9.29c-2.131 2.968-.866 6.51 2.325 6.51 2.423 0 2.473-.768.215-3.322-1.715-1.939-1.674-1.967 2.063-1.381 3.501.549 3.787.418 3.5-1.6-.477-3.351-5.748-3.486-8.103-.207m-24.642 1.929c-1.756 2.115-.912 5.081 1.446 5.081 1.527 0 1.986-.673 1.986-2.917 0-3.329-1.619-4.35-3.432-2.164" fill="#1976D2" fill-rule="evenodd"/><path fill-opacity=".721" d="M131.705 1.445c-1.213.596-2.613 2.461-3.113 4.145a6.94 6.94 0 0 1-3.855 4.366c-3.562 1.577-6.12 7.022-5.222 11.114.346 1.575 1.744 4.506 3.107 6.514 1.362 2.008 2.313 3.814 2.114 4.014-1.022 1.021-20.414 6.404-23.109 6.414-6.979.026-19.345 4.762-26.772 10.253C71.829 50.502 69 55.61 69 58.836c0 1.922.406 1.846 7.35-1.362 15.763-7.283 34.773-10.809 54.15-10.043 10.989.434 18.84 3.013 19.32 6.346.379 2.641.905 2.541-14.32 2.723-14.585.174-43.155 4.978-56.847 9.558-14.767 4.939-29.528 13.852-38.25 23.097-5.405 5.729-10.951 16.255-15.987 30.345-2.647 7.407-2.861 9.094-2.887 22.748l-.029 14.749-2.816.001c-1.548.001-3.686.468-4.75 1.037-1.82.974-1.934 2.302-1.934 22.466 0 18.032.267 21.992 1.685 24.965.927 1.944 2.031 3.534 2.453 3.534.422 0 .503 2.237.179 4.972-.543 4.581-.356 5.19 2.379 7.75 1.632 1.528 3.274 4.003 3.648 5.5.741 2.967 4.282 6.778 6.298 6.778.695 0 2.453-.542 3.907-1.204 2.307-1.051 2.775-.956 3.68.75 2.011 3.79 13.55 14.308 18.38 16.754 10.581 5.358 13.367 5.7 46.466 5.7 30.512 0 30.786-.019 42.068-2.87 16.797-4.246 29.985-9.797 52.857-22.25 31.795-17.311 33.087-18.346 42.844-34.313l5.156-8.438V81.268l-4.654-3.626c-2.56-1.995-6.167-5.872-8.015-8.617-2.826-4.196-8.335-9.428-25.976-24.671-1.271-1.098-2.397-3.587-2.762-6.104-.603-4.158-.554-4.25 2.26-4.25 3.887 0 7.738-3.236 9.242-7.766 2.013-6.064 1.763-20.248-.416-23.589l-1.822-2.792-38.974.254c-25.467.166-39.738.629-41.178 1.338m16.43 1.094c-1.85.804-5.923 1.461-9.05 1.461C132.967 4 131 5.123 131 8.618c0 1.57-1.095 2.752-3.75 4.05-2.84 1.387-3.83 2.529-4.078 4.703-.542 4.74.676 7.552 5.506 12.715 5.689 6.083 8.495 6.429 11.455 1.414 1.135-1.925 2.225-3.5 2.42-3.5.196 0 1.481 1.125 2.856 2.5 1.375 1.375 3.371 2.5 4.435 2.5 3.261 0 6.354-3.283 6.538-6.94.124-2.472.757-3.567 2.415-4.181 4.677-1.73 3.324-7.628-1.473-6.424-2.693.676-2.666.789-1.206-5.008.938-3.727.854-4.84-.523-6.943-1.88-2.868-2.801-2.988-7.46-.965M113.611 120.5c-2.614 5.637-1.871 25.414 1.259 33.5 1.171 3.025 2.129 5.838 2.129 6.25.001.412-1.911.746-4.249.74-5.805-.013-12.974-3.625-20.75-10.455-7.308-6.418-14.47-10.98-15.876-10.111-1.636 1.01-2.314 10.098-1.202 16.111.59 3.192.957 5.92.815 6.062-.781.78-15.963-2.672-19.351-4.4-5.102-2.603-11.561-9.071-16.673-16.697-2.213-3.3-4.189-6.198-4.392-6.44-.203-.243-1.145.334-2.095 1.282-1.374 1.371-1.828 4.143-2.226 13.586-.417 9.885-.823 12.221-2.437 14.004-1.87 2.065-1.889 2.653-.541 16.854.768 8.093 1.439 17.414 1.491 20.714.052 3.3.633 6.983 1.291 8.184.658 1.202 1.199 3.452 1.203 5 .003 1.549.9 4.166 1.993 5.816 1.093 1.65 1.99 3.782 1.993 4.739.009 2.383 8.183 12.941 12.929 16.699 19.752 15.644 63.488 17.261 105.578 3.902 8.658-2.748 36.649-16.094 47.639-22.715l3.64-2.192-2.89-2.89c-3.313-3.313-3.862-8.209-1.325-11.831 1.48-2.114 1.4-2.371-1.5-4.811-2.332-1.963-3.064-3.406-3.064-6.04 0-7.11 4.326-11.361 11.562-11.361 2.543 0 4.448.898 7.146 3.371 3.36 3.08 3.671 3.817 3.6 8.544-.05 3.31-.672 5.829-1.726 6.994-1.419 1.569-1.482 2.437-.452 6.286l1.194 4.467 3.6-1.74c1.98-.956 4.344-2.568 5.254-3.58 2.854-3.179 9.621-16.544 12.072-23.842 2.326-6.927 2.339-7.212 1.254-27.232l-1.096-20.233-2.954-3.107c-4.205-4.422-7.62-5.928-13.444-5.928-11.391 0-20.434 9.02-21.741 21.686-.699 6.766-2.163 7.877-12.302 9.329-15.051 2.156-35.114-1.94-49.967-10.202-6.848-3.809-18.152-12.813-20.86-16.616-1.415-1.988-2.133-4.815-2.355-9.278l-.32-6.419-1.854 4m110.606 30.061c-1.226.858-2.97 2.996-3.876 4.75-.906 1.754-3.325 5.214-5.375 7.689-5.532 6.68-6.495 8.899-4.66 10.735 1.956 1.956 3.462.938 4.492-3.034.643-2.484 1.368-3.201 3.234-3.201 1.95 0 2.699.848 3.965 4.492 1.625 4.676 4.507 6.463 5.644 3.5.352-.917-.318-3.352-1.503-5.46-3.754-6.679-2.431-12.171 4.006-16.632 2.121-1.47 3.856-3.061 3.856-3.536 0-1.477-7.436-.947-9.783.697M15.07 162.416c-3.34 4.025-1.878 32.936 2.085 41.23 1.549 3.241 4.477 4.075 7.233 2.059 1.823-1.332 1.827-1.887.161-20.287-.942-10.405-2.253-20.043-2.914-21.418-1.408-2.929-4.775-3.741-6.565-1.584m109.112 10.72c-1.86.536-3.141 1.485-2.916 2.16.676 2.022 13.026 2.537 15.314.638 3.859-3.203-4.469-5.082-12.398-2.798m-64.639 14.23c-2.547 2.547-4.302 11.473-3.154 16.046.726 2.894 3.198 5.588 5.127 5.588 3.083 0 6.522-4.504 7.665-10.037 1.456-7.057.582-10.517-3.146-12.445-3.754-1.941-3.695-1.949-6.492.848m37.983 1.584c-2.198 4.249-2.02 13.293.303 15.395 2.548 2.306 4.85 2.067 7.716-.8 1.992-1.991 2.455-3.459 2.455-7.777 0-6.577-1.97-9.768-6.031-9.768-2.219 0-3.283.706-4.443 2.95m105.129.879c-.91 1.006-1.655 3.279-1.655 5.051 0 2.731.528 3.443 3.468 4.671 5.091 2.127 8.235 1.832 10.055-.945 1.93-2.947 1.092-7.062-1.86-9.129-2.91-2.039-8.007-1.859-10.008.352M145.4 196.4c-4.293 4.293-4.433 7.721-.477 11.677 4.171 4.17 10.034 4.12 14.277-.123 2.61-2.61 2.963-3.562 2.463-6.644-1.407-8.67-9.93-11.243-16.263-4.91m3.204 3.755c-3.081 4.399 2.933 8.165 6.825 4.274 1.859-1.86 1.875-1.993.536-4.495-1.387-2.591-5.477-2.468-7.361.221M39 207.294C31.248 211.215 33.7 223 42.268 223c3.348 0 7.732-3.972 7.732-7.004 0-3.302-2.607-7.496-5.472-8.801-3.129-1.426-2.491-1.437-5.528.099m34.082 2.074c-2.73 4.416-2.629 7.176.373 10.177 2.898 2.899 8.848 3.332 12.322.898 3.57-2.5 2.602-3.338-3.169-2.742-4.775.493-5.464.328-6.025-1.44-.349-1.098-.172-3.211.392-4.694 2.368-6.229-.427-7.808-3.893-2.199m132.163-1.213c-2.835 2.835-.34 8.845 3.671 8.845.976 0 2.601-.914 3.611-2.03 2.719-3.004 1.005-7.364-3.05-7.765-1.643-.162-3.547.265-4.232.95m-165.678 3.771c-2.05 2.265-1.77 4.917.683 6.462 2.104 1.325 5.067-.17 5.588-2.82C46.16 213.93 43.452 210 42 210c-.38 0-1.474.867-2.433 1.926m96.633-.726c-.66.66-1.208 2.573-1.219 4.25-.017 2.859-.544 3.282-8.404 6.748-10.092 4.45-17.117 6.339-29.077 7.818-11.845 1.464-32.119-.647-34.57-3.6-1.535-1.85-2.93-.865-2.93 2.07 0 9.154 25.837 12.536 46 6.022 8.11-2.621 23.35-9.725 27.409-12.778 1.471-1.106 2.787-1.214 5.727-.467 2.1.533 4.503.706 5.341.384 2.181-.837 1.88-3.32-.477-3.937-1.132-.296-2-1.364-2-2.461 0-1.067-.823-2.684-1.829-3.594-2.183-1.976-2.423-2.003-3.971-.455m-114.95.462c-1.593.643-1.628 5.56-.05 7.138 3.093 3.093 8.526-.77 7.399-5.26-.495-1.974-1.246-2.522-3.368-2.461-1.502.043-3.293.306-3.981.583m33.784 8.296c-1.17.74-.887 1.147 1.401 2.017 3.791 1.442 5.247.85 3.128-1.27-1.948-1.947-2.491-2.036-4.529-.747m-27.379 2.871c-3.285 3.63-.776 8.376 3.281 6.205 2.278-1.219 2.604-3.156 1.029-6.1-1.29-2.409-2.205-2.432-4.31-.105M52 224.878c0 1.278 2.94 3.515 3.667 2.789.726-.727-1.511-3.667-2.789-3.667a.88.88 0 0 0-.878.878" fill="#1976D2" fill-rule="evenodd"/><path fill-opacity=".966" d="M145 1.023c-.845.559-3.81.719-6.789.365C132.417.7 129 2.481 129 6.189c0 1.089-1.481 2.752-3.526 3.959-6.461 3.812-7.293 9.592-2.476 17.188 2.056 3.242 2.606 4.85 1.75 5.117-.686.215-4.848 1.544-9.248 2.955-4.4 1.411-11.6 3.047-16 3.637-8.012 1.073-17.591 4.747-23.68 9.083-2.882 2.052-7.16 9.512-6.276 10.943.224.363 2.569-.374 5.209-1.638 7.022-3.36 18.583-7.058 27.993-8.952 11.253-2.266 36.773-1.735 42.927.893 4.768 2.036 6.094 4.288 3.847 6.535-1.237 1.236-4.256 1.575-14.787 1.659-14.557.116-36.949 3.531-52.277 7.973-15.411 4.466-36.064 16.443-42.922 24.89-7.354 9.058-15.797 30.186-17.504 43.802-.57 4.543-.746 11.738-.391 15.988l.644 7.729-3.596-.135c-5.363-.202-6.709 1.45-6.562 8.057l.125 5.628.697-4.286c.384-2.358 1.436-5.025 2.338-5.928 2.552-2.552 6.359-.337 7.591 4.418 1.552 5.989 3.968 36.567 3.076 38.919-.971 2.558-5.559 3.948-7.558 2.289-1.624-1.348-4.325-10.036-5.406-17.389-.712-4.841-.741-4.751-.819 2.477-.083 7.639 1.436 13.79 4.152 16.816.932 1.038 1.308 2.732.982 4.416-.804 4.15.477 7.711 3.225 8.963 1.785.813 2.472 1.916 2.472 3.966 0 5.387 5.454 8.414 10.069 5.589 1.686-1.032 2.191-.988 2.897.25 8.393 14.731 26.824 24.157 46.678 23.874l8.856-.127-6.839-.879c-23.614-3.034-32.849-7.626-45.838-22.792-2.027-2.368-3.433-4.929-3.133-5.71.298-.778-.564-3.092-1.918-5.141-1.353-2.049-2.501-5.219-2.551-7.044-.05-1.826-.6-3.933-1.223-4.683-.622-.75-1.306-5.781-1.52-11.181-.214-5.399-.82-14.992-1.346-21.317-.847-10.176-.766-11.713.705-13.353 1.265-1.41 1.807-4.693 2.267-13.722.865-17.001 3.104-18.933 10.059-8.675 8.928 13.169 17.041 18.632 30.092 20.263l5.72.714-1.092-3.134c-1.171-3.358-.877-18.432.383-19.693 1.316-1.315 6.93 2.135 16.234 9.978 9.123 7.689 16.749 11.622 22.538 11.622 3.382 0 3.495-.242 1.536-3.285-2.206-3.426-4.58-16.786-4.518-25.423.065-8.931 1.652-14.616 4.218-15.108 1.54-.295 1.691.185 1.139 3.635-.923 5.77 1.02 10.377 6.563 15.562 8.475 7.927 18.902 13.998 31.156 18.141 10.986 3.713 11.839 3.844 25.368 3.898 17.918.071 19.643-.628 20.763-8.415C202.217 136.429 211.864 127 223.801 127c6.634 0 14.255 5.408 16.105 11.428.52 1.69 1.245 11.191 1.611 21.115.616 16.659.506 18.532-1.427 24.42-1.151 3.508-2.993 7.902-4.092 9.764-1.099 1.863-1.998 3.819-1.998 4.346 0 .527-1.636 3.421-3.635 6.432-3.741 5.635-12.133 11.681-12.772 9.201-.171-.663-.867-2.932-1.548-5.042-1.125-3.489-1.047-4.013.859-5.789 2.74-2.553 2.808-9.195.138-13.574-4.209-6.903-15.508-6.216-18.578 1.131-2.519 6.028-1.44 9.244 4.152 12.373 1.782.997 1.779 1.101-.087 3.163-1.154 1.275-1.929 3.579-1.929 5.733 0 2.852.687 4.176 3.303 6.36l3.304 2.757-2.354 1.449c-1.294.797-8.653 4.855-16.353 9.017-27.723 14.985-44.038 20.017-78 24.059-1.65.197 1.406.425 6.792.507 14.535.223 33.334-4.159 51.708-12.052 11.015-4.731 47.655-24.585 54.382-29.466 4.917-3.569 9.185-8.766 16.203-19.73l4.415-6.899V81.431l-2.829-1.671c-1.556-.919-4.593-3.723-6.75-6.232C224.734 62.259 220.53 58.015 212.107 51c-9.426-7.85-9.8-8.357-10.298-13.982-.296-3.333-.146-3.508 3.518-4.105 7.12-1.16 9.603-6.118 9.649-19.262.015-4.277-.582-8.126-1.59-10.25L211.772 0l-32.636.015C159.24.025 145.914.418 145 1.023m1.5 1.544c-1.969.922-4.643 1.205-7.78.821-5.424-.663-7.285.354-8.19 4.475-.398 1.811-1.585 3.097-3.542 3.836-3.747 1.414-5.442 5.067-4.553 9.809C123.209 25.63 132.419 36 135.307 36c1.784 0 4.802-2.585 6.445-5.522.912-1.629 1.123-1.603 3.113.387 4.41 4.41 12.135 1.387 12.135-4.748 0-1.993.587-3.037 1.901-3.381 1.045-.273 2.406-1.44 3.023-2.594 1.494-2.791-1.696-6.276-4.963-5.421-1.955.511-2.069.35-1.074-1.509 1.475-2.757 1.422-9.503-.087-11.012-1.558-1.558-5.524-1.401-9.3.367m76.673 150.225c-1.47 1.536-3.455 4.123-4.411 5.75-.955 1.627-3.339 4.933-5.296 7.347-3.557 4.386-4.199 7.611-1.516 7.611.783 0 1.796-1.44 2.252-3.201.976-3.765 2.097-4.656 4.785-3.803 1.226.389 2.374 2.13 3.043 4.616 1.118 4.15 3.342 5.916 5.16 4.098.741-.741.349-2.048-1.315-4.383-1.624-2.277-2.372-4.703-2.373-7.689-.002-3.946.46-4.78 4.845-8.75l4.846-4.388h-3.673c-2.716 0-4.371.728-6.347 2.792m-99.423 20.897c-3.02.789-1.906 2.311 1.691 2.311 1.893 0 3.713.441 4.046.98.374.604 1.258.632 2.309.073.937-.499 2.491-1.151 3.454-1.449.963-.298 1.75-1.005 1.75-1.573 0-1.017-9.707-1.267-13.25-.342m-64.227 14.285c-1.209 1.337-1.945 4.19-2.277 8.837-.596 8.322.678 11.454 4.472 10.999 3.997-.48 6.418-4.638 7.013-12.045.478-5.96.333-6.607-1.828-8.121-3.098-2.169-5.203-2.075-7.38.33m39.095.276c-.785 1.238-1.726 4.525-2.09 7.306-.541 4.131-.315 5.485 1.236 7.401 4.083 5.042 11.114-1.157 9.887-8.718-1.205-7.426-6.073-10.654-9.033-5.989m103.837 1.205c-4.865 4.865-1.725 10.815 6.234 11.813 4.838.607 7.311-1.258 7.311-5.515 0-3.946-.973-5.688-4.072-7.29-4.043-2.091-6.665-1.817-9.473.992m-53.979 4.918c-3.064 1.358-5.476 5.155-5.476 8.618 0 1.044 1.077 3.15 2.394 4.681 3.412 3.966 9.8 3.966 13.212 0 3.008-3.498 3.064-7.81.144-11.079-2.835-3.172-6.392-3.941-10.274-2.22m.747 4.184c-5.146 3.604-.531 10.271 5.277 7.625 3.167-1.443 3.523-6.564.566-8.147-2.566-1.373-3.222-1.315-5.843.522m-75.155 10.347c-2.464 3.461-2.639 6.836-.511 9.873C76.101 222.41 87 221.589 87 217.765c0-.46-.87-.37-1.934.2-2.785 1.49-6.623 1.273-8.058-.456-1.184-1.426-1.019-4.399.515-9.259 1.013-3.208-.972-2.832-3.455.654m130.587-1.075c-2.404 2.656-2.032 5.729.98 8.098 3.348 2.634 3.926 2.603 6.905-.376 2.115-2.115 2.305-2.828 1.392-5.23-1.773-4.663-6.229-5.86-9.277-2.492m-167.2 1.626c-4.946 4.945-2.146 12.878 4.545 12.878 4.134 0 7-2.879 7-7.033 0-3.918-3.696-8.3-7-8.3-1.15 0-3.195 1.105-4.545 2.455m-15.117 1.544c-3.01 1.213-3.853 4.567-1.898 7.55 1.868 2.85 3.264 3.047 6.337.894 2.449-1.715 3.012-6.254 1.023-8.243-1.38-1.38-2.441-1.42-5.462-.201m16.11 1.44c-1.571 2.397-1.571 2.725 0 5.122 3.209 4.898 9.857.7 7.239-4.57-1.731-3.485-5.147-3.745-7.239-.552m98.24-.793c-.379.378-.688 2.364-.688 4.414 0 4.031 1.109 4.94 6.023 4.94 3.34 0 4.802-1.592 2.242-2.441-.971-.322-2.44-2.019-3.265-3.771-1.529-3.246-3.079-4.375-4.312-3.142M56 221c1.97 1.273 4.287 1.273 3.5 0-.34-.55-1.604-.993-2.809-.985-1.781.013-1.91.197-.691.985m69.671 2.144c-9.136 4.668-19.594 7.034-33.607 7.604-13.084.532-24.8-.83-28.779-3.347-1.218-.771-2.455-1.401-2.75-1.401-1.225 0-.394 2.91 1.531 5.356 6.004 7.634 31.008 7.864 49.934.461 6.882-2.692 17.855-8.154 20.5-10.203 3.357-2.602-.38-1.765-6.829 1.53m-99.263.356c-1.517 2.316-1.517 2.684 0 5 .901 1.375 2.046 2.5 2.544 2.5 1.563 0 4.048-3.062 4.048-4.99 0-5.347-3.788-6.79-6.592-2.51" fill="#1976D2" fill-rule="evenodd"/></svg>