<svg xmlns="http://www.w3.org/2000/svg" width="256" height="256"><path fill="#1976D2" fill-opacity=".016" fill-rule="evenodd" d="M0 128.004v128.004l128.25-.254 128.25-.254.254-127.75L257.008 0H0v128.004m.485.496c0 70.4.119 99.053.265 63.672.146-35.38.146-92.98 0-128C.604 29.153.485 58.1.485 128.5"/><path fill="#1976D2" fill-opacity=".247" fill-rule="evenodd" d="M110 10.233c-9.075 4.456-27.975 13.658-42 20.448-14.025 6.791-28.875 14.037-33 16.102l-7.5 3.755-.5 39.481c-.275 21.715-.214 39.857.135 40.316.35.46 2.821-.328 5.492-1.75 2.672-1.422 5.423-2.585 6.115-2.585.692 0 1.258-.45 1.258-1s.459-1 1.019-1c.561 0 8.999-3.875 18.75-8.611 9.752-4.736 25.156-12.201 34.231-16.59 9.075-4.389 20.677-10.059 25.782-12.6 9.187-4.573 9.314-4.603 12.5-2.983 1.77.899 8.618 4.201 15.218 7.336 21.469 10.199 79.768 38.484 82.75 40.148.412.23.75-17.731.75-39.914V50.455l-3.25-1.661c-1.787-.914-10.9-5.348-20.25-9.854-9.35-4.506-25.775-12.456-36.5-17.668a88787.966 88787.966 0 0 0-29.594-14.374c-5.551-2.694-11.176-4.869-12.5-4.833-1.323.036-9.831 3.712-18.906 8.168m-1.5 124.24c-18.564 9.182-59.563 29.151-74.25 36.164L25 175.055v39.972c0 21.985.218 39.973.485 39.973s3.08-1.33 6.25-2.956c5.079-2.605 26.411-13.051 78.928-38.652 8.34-4.066 15.397-7.392 15.683-7.392.285 0 11.462 5.347 24.836 11.882C218.187 250.621 227.28 255 228.26 255c.734 0 .856-6.964.4-22.662-.363-12.463-.66-30.473-.66-40.021v-17.36l-12.75-6.087c-7.012-3.347-21.525-10.375-32.25-15.617-37.421-18.291-56.126-27.253-56.81-27.22-.38.018-8.34 3.816-17.69 8.44"/><path fill="#1976D2" fill-opacity=".545" fill-rule="evenodd" d="M116 8.067c-12.052 6.093-45.352 22.298-70 34.066-7.975 3.807-15.175 7.296-16 7.753-1.287.714-1.537 6.467-1.762 40.56-.143 21.851.082 39.577.5 39.391.419-.186 7.962-3.859 16.762-8.164s17.575-8.579 19.5-9.5c1.925-.92 3.65-2.011 3.833-2.423.184-.413.77-.75 1.304-.75 1.075 0 13.071-5.66 40.632-19.171l18.268-8.956 6.732 3.179c9.916 4.684 30.72 14.741 56.731 27.426 12.65 6.169 25.7 12.523 29 14.119 3.3 1.597 6.15 3.241 6.333 3.653.184.412.971.75 1.75.75 1.199 0 1.417-6.078 1.417-39.422V51.156l-11.75-5.717c-6.463-3.144-17.6-8.524-24.75-11.957-7.15-3.432-24.618-11.92-38.817-18.861-14.2-6.942-26.35-12.564-27-12.494-.651.069-6.358 2.743-12.683 5.94m-9.614 128.319c-18.016 9.065-42.843 21.191-68.136 33.28L25 175.999V215c0 21.45.249 39 .553 39 .304 0 22.785-11.025 49.957-24.5 27.173-13.475 49.957-24.5 50.631-24.5.675 0 11.607 5.124 24.293 11.386 12.686 6.263 35.328 17.431 50.316 24.818L228 254.636v-78.724l-13.25-6.322c-12.694-6.056-40.118-19.394-72.35-35.19-8.305-4.07-15.73-7.339-16.5-7.264-.77.075-9.551 4.237-19.514 9.25"/><path fill="#1976D2" fill-opacity=".29" fill-rule="evenodd" d="M125 4.606c-4.318 2.141-27.903 13.622-61.18 29.78C55.196 38.574 47.658 42 47.07 42c-.589 0-1.07.45-1.07 1s-.493 1-1.095 1-4.636 1.688-8.964 3.75L28.07 51.5l-.035 38.725L28 128.95l2.73-1.037c1.501-.571 4.763-2.106 7.25-3.411 4.771-2.504 32.02-15.743 55.52-26.975 7.7-3.68 18.434-8.904 23.853-11.609C122.772 83.213 128.054 81 129.091 81c1.037 0 10.103 3.982 20.147 8.849C180.684 105.087 184.775 107 185.902 107c.604 0 1.098.45 1.098 1s.49 1 1.089 1c.798 0 35.015 16.387 41.161 19.712.412.223.75-17.091.75-38.476V51.355l-4.36-2.178c-2.397-1.197-4.872-2.177-5.5-2.177-.627 0-1.14-.45-1.14-1s-.536-1-1.191-1c-.656 0-5.787-2.25-11.404-5s-10.706-5-11.309-5c-.603 0-1.096-.45-1.096-1s-.475-1-1.055-1C191.924 33 161.446 18.403 140 7.643l-10.5-5.268-4.5 2.231"/></svg>